# xmcd
#
# Track frame offsets: 
#        150
#        4825
#        22705
#        46898
#        70106
#        84274
#        102390
#        131690
#        145636
#        163625
#        175050
#        186839
#        213541
#        230450
#
# Disc length: 3254 seconds
#
# Revision: 0
# Processed by: cddbd v1.5.2PL0 Copyright (c) Steve Scherf et al.
# Submitted via: ExactAudioCopyFreeDBPlugin 1.0
#
DISCID=ae0cb40e
DTITLE=Trovadores Urbanos - Canções Paulistas Ao Vivo
DYEAR=2007
DGENRE=Folk
TTITLE0=Vinheta Triste Berrante
TTITLE1=Luz da Light (Pot-Pourri)
TTITLE2=Na Boca da Noite (Pot-Pourri)
TTITLE3=Como Vai Você (Pot-Pourri)
TTITLE4=Meu Mundo e Nada Mais
TTITLE5=Aprendendo a Jogar (Pot-Pourri)
TTITLE6=João de Barro (Pot-Pourri)
TTITLE7=Paulista (Pot-Pourri)
TTITLE8=Regra Três
TTITLE9=Vou Tirar Você do Dicionário (Pot-Pourri)
TTITLE10=El Día Que Me Quieras
TTITLE11=Perfil de São Paulo (Pot-Pourri)
TTITLE12=Rapaziada do Brás (Pot-Pourri)
TTITLE13=Trem das Onze
EXTD=
EXTT0=
EXTT1=
EXTT2=
EXTT3=
EXTT4=
EXTT5=
EXTT6=
EXTT7=
EXTT8=
EXTT9=
EXTT10=
EXTT11=
EXTT12=
EXTT13=
PLAYORDER=
